<?xml version="1.0" encoding="utf-8"?>
<!-- Generator: Adobe Illustrator 16.0.0, SVG Export Plug-In . SVG Version: 6.00 Build 0)  -->
<!DOCTYPE svg PUBLIC "-//W3C//DTD SVG 1.1//EN" "http://www.w3.org/Graphics/SVG/1.1/DTD/svg11.dtd">
<svg version="1.1" id="Calque_1" xmlns="http://www.w3.org/2000/svg" xmlns:xlink="http://www.w3.org/1999/xlink" x="0px" y="0px"
	 width="170px" height="100px" viewBox="0 0 170 100" enable-background="new 0 0 170 100" xml:space="preserve">
<g>
	<path fill="none" stroke="#FFFFFF" stroke-width="4" stroke-miterlimit="10" d="M58.6,72.6H18.9c-1.5,0-2.7-1.9-2.7-3.4V12.3
		c0-1.5,1.2-2.7,2.7-2.7h102.8c1.5,0,2.7,1.2,2.7,2.7v56.9c0,1.5-1.2,3.4-2.7,3.4H75v8.2h5.5v9.6H53.1v-9.6h5.5V72.6z"/>
	<rect x="23" y="17" fill="#FFFFFF" width="95" height="45"/>
	<polyline fill="#E91845" points="46,38.2 68,30.2 90,38.2 68,46.2 46,38.2 	"/>
	<g>
		<g>
			<path fill="#F9B233" d="M37,85.1c0,2.7-2.2,4.9-4.9,4.9H10.9C8.2,90,6,87.8,6,85.1V46.9c0-2.7,2.2-4.9,4.9-4.9h21.1
				c2.7,0,4.9,2.2,4.9,4.9V85.1z"/>
			<path fill="#FFFFFF" d="M31.8,44c1.6,0,3.2,1.2,3.2,2.8V85c0,1.6-1.6,3-3.2,3H10.5C8.9,88,8,86.7,8,85V46.8
				c0-1.6,0.9-2.8,2.5-2.8H32 M31.8,40H10.5C6.7,40,4,42.9,4,46.8V85c0,3.8,2.7,7,6.5,7h21.3c3.8,0,7.2-3.1,7.2-7V46.8
				C39,42.9,35.6,40,31.8,40L31.8,40z"/>
		</g>
		<rect x="11" y="51" fill="#FFFFFF" width="21" height="32"/>
		<circle fill="#FFFFFF" cx="21.2" cy="84.6" r="1.7"/>
		<rect x="16" y="47" fill="#FFFFFF" width="7" height="1"/>
		<polyline fill="#E91845" points="14.7,65.9 21.2,63.6 27.6,65.9 21.2,68.2 14.7,65.9 		"/>
	</g>
	<g>
		<g>
			<path fill="#F9B233" d="M164,85.1c0,2.7-2.2,4.9-4.9,4.9H93.9c-2.7,0-4.9-2.2-4.9-4.9V46.9c0-2.7,2.2-4.9,4.9-4.9h65.1
				c2.7,0,4.9,2.2,4.9,4.9V85.1z"/>
			<path fill="#FFFFFF" d="M159.5,44c1.6,0,2.5,1.3,2.5,3V85c0,1.6-0.9,3-2.5,3H93.9c-1.6,0-2.9-1.3-2.9-3V47c0-1.6,1.3-3,2.9-3H159
				 M159.5,40H93.9c-3.8,0-6.9,3.1-6.9,7V85c0,3.8,3.1,7,6.9,7h65.6c3.8,0,6.5-3.1,6.5-7V47C166,43.1,163.3,40,159.5,40L159.5,40z"
				/>
		</g>
		<rect x="101" y="50" fill="#FFFFFF" width="50" height="34"/>
		<circle fill="#FFFFFF" cx="156.8" cy="65.5" r="2.4"/>
		<rect x="94" y="63" fill="#FFFFFF" width="3" height="9"/>
		<polyline fill="#E91845" points="113.3,65.5 126.6,60.7 139.9,65.5 126.6,70.4 113.3,65.5 		"/>
	</g>
</g>
</svg>
