<?xml version="1.0" encoding="utf-8"?>
<!-- Generator: Adobe Illustrator 16.0.0, SVG Export Plug-In . SVG Version: 6.00 Build 0)  -->
<!DOCTYPE svg PUBLIC "-//W3C//DTD SVG 1.1//EN" "http://www.w3.org/Graphics/SVG/1.1/DTD/svg11.dtd">
<svg version="1.1" id="Calque_1" xmlns="http://www.w3.org/2000/svg" xmlns:xlink="http://www.w3.org/1999/xlink" x="0px" y="0px"
	 width="170px" height="100px" viewBox="0 0 170 100" enable-background="new 0 0 170 100" xml:space="preserve">
<g>
	<polygon fill="none" stroke="#FFFFFF" stroke-width="4" stroke-linejoin="round" stroke-miterlimit="10" points="22.6,15 72,4 
		72,15 	"/>
	<rect x="21" y="16" fill="none" stroke="#FFFFFF" stroke-width="4" stroke-miterlimit="10" width="59" height="80"/>
	<rect x="27" y="49" fill="#FFFFFF" width="29" height="15"/>
	<rect x="27" y="72" fill="#FFFFFF" width="13" height="3"/>
	<rect x="27" y="76" fill="#FFFFFF" width="13" height="3"/>
	<rect x="27" y="80" fill="#FFFFFF" width="13" height="3"/>
	<polyline fill="#E91845" points="35.5,32.4 53,26.1 70.5,32.4 53,38.9 35.5,32.4 	"/>
	<rect x="27" y="68" fill="#FFFFFF" width="13" height="3"/>
	<rect x="59" y="57" fill="#FFFFFF" width="13" height="3"/>
	<rect x="59" y="53" fill="#FFFFFF" width="13" height="3"/>
	<rect x="59" y="49" fill="#FFFFFF" width="13" height="3"/>
	<rect x="59" y="61" fill="#FFFFFF" width="13" height="3"/>
	<rect x="43" y="72" fill="#FFFFFF" width="13" height="3"/>
	<rect x="43" y="76" fill="#FFFFFF" width="13" height="3"/>
	<rect x="43" y="80" fill="#FFFFFF" width="13" height="3"/>
	<rect x="43" y="68" fill="#FFFFFF" width="13" height="3"/>
	<rect x="59" y="72" fill="#FFFFFF" width="13" height="3"/>
	<rect x="59" y="76" fill="#FFFFFF" width="13" height="3"/>
	<rect x="59" y="80" fill="#FFFFFF" width="13" height="3"/>
	<rect x="59" y="68" fill="#FFFFFF" width="13" height="3"/>
	<polygon fill="none" stroke="#FFFFFF" stroke-width="4" stroke-linejoin="round" stroke-miterlimit="10" points="90.6,15 140,4 
		140,15 	"/>
	<rect x="89" y="16" fill="none" stroke="#FFFFFF" stroke-width="4" stroke-miterlimit="10" width="59" height="80"/>
	<rect x="95" y="49" fill="#FFFFFF" width="29" height="15"/>
	<rect x="95" y="72" fill="#FFFFFF" width="13" height="3"/>
	<rect x="95" y="76" fill="#FFFFFF" width="13" height="3"/>
	<rect x="95" y="80" fill="#FFFFFF" width="13" height="3"/>
	<polyline fill="#E91845" points="103.5,32.4 121,26.1 138.5,32.4 121,38.9 103.5,32.4 	"/>
	<rect x="95" y="68" fill="#FFFFFF" width="13" height="3"/>
	<rect x="127" y="57" fill="#FFFFFF" width="13" height="3"/>
	<rect x="127" y="53" fill="#FFFFFF" width="13" height="3"/>
	<rect x="127" y="49" fill="#FFFFFF" width="13" height="3"/>
	<rect x="127" y="61" fill="#FFFFFF" width="13" height="3"/>
	<rect x="111" y="72" fill="#FFFFFF" width="13" height="3"/>
	<rect x="111" y="76" fill="#FFFFFF" width="13" height="3"/>
	<rect x="111" y="80" fill="#FFFFFF" width="13" height="3"/>
	<rect x="111" y="68" fill="#FFFFFF" width="13" height="3"/>
	<rect x="127" y="72" fill="#FFFFFF" width="13" height="3"/>
	<rect x="127" y="76" fill="#FFFFFF" width="13" height="3"/>
	<rect x="127" y="80" fill="#FFFFFF" width="13" height="3"/>
	<rect x="127" y="68" fill="#FFFFFF" width="13" height="3"/>
</g>
</svg>
