<?xml version="1.0" encoding="UTF-8"?>
<svg width="136px" height="32px" viewBox="0 0 136 32" version="1.1" xmlns="http://www.w3.org/2000/svg" xmlns:xlink="http://www.w3.org/1999/xlink">
    <!-- Generator: Sketch 43.2 (39069) - http://www.bohemiancoding.com/sketch -->
    <title>oath</title>
    <desc>Created with Sketch.</desc>
    <defs></defs>
    <g id="Page-1" stroke="none" stroke-width="1" fill="none" fill-rule="evenodd">
        <g id="Oath-Footer-414_Opt2" transform="translate(-18.000000, -1386.000000)" fill="#FFFFFF">
            <g id="oath" transform="translate(18.000000, 1386.000000)">
                <path d="M13.8843225,24.7009808 C13.8843225,28.532122 10.7763464,31.6384723 6.94216123,31.6384723 C3.10788541,31.6384723 0,28.532122 0,24.7009808 C0,20.8698395 3.10788541,17.7635797 6.94216123,17.7635797 C10.7763464,17.7635797 13.8843225,20.8698395 13.8843225,24.7009808" id="Fill-1"></path>
                <path d="M13.8843225,7.02786893 C13.8843225,10.8590102 10.7763464,13.9652701 6.94216123,13.9652701 C3.10788541,13.9652701 0,10.8590102 0,7.02786893 C0,3.19672768 3.10788541,0.0903774011 6.94216123,0.0903774011 C10.7763464,0.0903774011 13.8843225,3.19672768 13.8843225,7.02786893" id="Fill-3"></path>
                <polygon id="Fill-6" points="21.0590337 0.417428249 31.3848858 0.417428249 31.3848858 2.85928136 27.6514548 2.85928136 27.6514548 12.946513 24.7757026 12.946513 24.7757026 2.85928136 21.0590337 2.85928136"></polygon>
                <path d="M34.7315459,7.60819887 L38.5490596,7.60819887 C38.4649769,6.36200678 37.7586105,5.60422147 36.7159137,5.60422147 C35.5051422,5.60422147 34.8997111,6.37882034 34.7315459,7.60819887 M32.1248037,8.48385989 C32.1248037,5.78944181 33.9915646,3.73493333 36.7159137,3.73493333 C37.9940962,3.73493333 39.0031781,4.15599548 39.7935366,4.88006328 C40.8026185,5.85678644 41.2566465,7.37244746 41.2397937,9.14067345 L34.7146931,9.14067345 C34.882949,10.4878373 35.6059869,11.2961537 36.8841695,11.2961537 C37.7082334,11.2961537 38.2294913,10.9762441 38.5154446,10.4204927 L41.0716285,10.4204927 C40.6176005,12.0034983 39.1544906,13.2159729 36.8505546,13.2159729 C33.9243347,13.2159729 32.1248037,11.1614644 32.1248037,8.48385989" id="Fill-8"></path>
                <path d="M41.9797841,8.48385989 C41.9797841,5.78944181 43.8127488,3.73493333 46.6213618,3.73493333 C49.0093804,3.73493333 50.4893431,5.09900113 50.8087302,7.05244746 L48.2525463,7.05244746 C48.0675283,6.22731751 47.5294177,5.70528362 46.6549767,5.70528362 C45.3264171,5.70528362 44.6537562,6.79988249 44.6537562,8.48385989 C44.6537562,10.1173966 45.3264171,11.228809 46.6549767,11.228809 C47.6302625,11.228809 48.2189314,10.6394305 48.3367195,9.61217627 L50.8761412,9.61217627 C50.791968,11.6497808 49.177455,13.2327864 46.6885916,13.2327864 C43.8296016,13.2327864 41.9797841,11.1614644 41.9797841,8.48385989" id="Fill-10"></path>
                <path d="M54.5591046,5.26740791 L54.6095723,5.26740791 C55.1476829,4.30749831 56.0558294,3.73493333 57.3003065,3.73493333 C59.2679121,3.73493333 60.4115443,5.04847006 60.4115443,7.05244746 L60.4115443,12.946504 L57.78804,12.946504 L57.78804,7.5576678 C57.78804,6.58094463 57.2666915,5.92413107 56.2913151,5.92413107 C55.265471,5.92413107 54.5759574,6.74935141 54.5759574,7.89448136 L54.5759574,12.946504 L51.9356003,12.946504 L51.9356003,0.417419209 L54.5759574,0.417419209 L54.5759574,3.86971299 C54.5759574,3.95387119 54.5759574,4.67793898 54.5591046,5.26740791" id="Fill-12"></path>
                <path d="M61.5886103,6.73249266 C61.5886103,2.99400678 63.9934817,0.198526554 67.7269127,0.198526554 C69.10594,0.198526554 70.2999494,0.535249718 71.1576282,1.17524972 C72.2844077,2.00037966 72.9402159,3.2296678 73.0916189,4.64426667 L70.2326289,4.64426667 C70.0645543,3.4655096 69.1227022,2.58975819 67.7101506,2.58975819 C65.5742891,2.58975819 64.5148301,4.35798418 64.5148301,6.73249266 C64.5148301,9.12381469 65.7593071,10.8583232 67.7269127,10.8583232 C69.2572525,10.8583232 70.199014,9.86478644 70.3335643,8.56806328 L73.2093165,8.56806328 C73.1252338,9.81425537 72.5535083,10.9761989 71.6958294,11.8182328 C70.7539773,12.7444249 69.475976,13.2328316 67.7269127,13.2328316 C64.0775643,13.2328316 61.5886103,10.4709785 61.5886103,6.73249266" id="Fill-14"></path>
                <path d="M76.892307,5.58736271 L76.9427747,5.58736271 C77.5145002,4.34117062 78.3217114,3.83595028 79.4316381,3.83595028 C79.6839765,3.83595028 79.8689945,3.85285424 79.9866015,3.90338531 L79.9866015,6.21045876 L79.9193716,6.21045876 C79.7343536,6.17674124 79.5494262,6.15992768 79.3644083,6.15992768 C77.9350039,6.14302373 76.9931518,7.0355887 76.9931518,8.78700113 L76.9931518,12.9465492 L74.3528853,12.9465492 L74.3528853,3.9875435 L76.892307,3.9875435 L76.892307,5.58736271 Z" id="Fill-16"></path>
                <path d="M86.898464,12.946522 L86.898464,11.6667028 L86.8479963,11.6667028 C86.1920975,12.7107706 85.3848863,13.199087 84.1572621,13.199087 C82.122336,13.199087 81.0124093,11.8856407 81.0124093,9.9152904 L81.0124093,3.98751638 L83.6527664,3.98751638 L83.6527664,9.41007006 C83.6527664,10.4036972 84.1404999,10.9762621 85.0821708,10.9762621 C86.1416298,10.9762621 86.7975286,10.1678554 86.7975286,9.05644294 L86.7975286,3.98751638 L89.4041801,3.98751638 L89.4041801,12.946522 L86.898464,12.946522 Z" id="Fill-18"></path>
                <path d="M93.5412983,5.35157514 L93.591766,5.35157514 C94.1467294,4.27378983 95.1053436,3.73494237 96.34973,3.73494237 C98.3174262,3.73494237 99.4609679,5.0484791 99.4609679,7.0524565 L99.4609679,12.946513 L96.8374636,12.946513 L96.8374636,7.55767684 C96.8374636,6.58095367 96.3161151,5.92414011 95.3406481,5.92414011 C94.3148946,5.92414011 93.6253809,6.74927006 93.6253809,7.8944904 L93.6253809,12.946513 L90.9850239,12.946513 L90.9850239,3.98750734 L93.5412983,3.98750734 L93.5412983,5.35157514 Z" id="Fill-20"></path>
                <path d="M100.554078,8.48385989 C100.554078,5.78944181 102.387043,3.73493333 105.195656,3.73493333 C107.583674,3.73493333 109.063546,5.09900113 109.383024,7.05244746 L106.82684,7.05244746 C106.641822,6.22731751 106.103712,5.70528362 105.229271,5.70528362 C103.900711,5.70528362 103.22805,6.79988249 103.22805,8.48385989 C103.22805,10.1173966 103.900711,11.228809 105.229271,11.228809 C106.204647,11.228809 106.793225,10.6394305 106.910923,9.61217627 L109.450435,9.61217627 C109.366262,11.6497808 107.751749,13.2327864 105.262886,13.2327864 C102.403986,13.2327864 100.554078,11.1614644 100.554078,8.48385989" id="Fill-22"></path>
                <path d="M113.133308,5.26740791 L113.183776,5.26740791 C113.721886,4.30749831 114.630123,3.73493333 115.87451,3.73493333 C117.842206,3.73493333 118.985748,5.04847006 118.985748,7.05244746 L118.985748,12.946504 L116.362243,12.946504 L116.362243,7.5576678 C116.362243,6.58094463 115.840895,5.92413107 114.865428,5.92413107 C113.839674,5.92413107 113.150161,6.74935141 113.150161,7.89448136 L113.150161,12.946504 L110.509804,12.946504 L110.509804,0.417419209 L113.150161,0.417419209 L113.150161,3.86971299 C113.150161,3.95387119 113.150161,4.67793898 113.133308,5.26740791" id="Fill-24"></path>
                <path d="M25.0951712,27.1800949 L28.3072538,27.1800949 L27.5506009,24.839304 C27.0123997,23.121609 26.7432085,21.5049763 26.7432085,21.5049763 L26.7095936,21.5049763 C26.7095936,21.5049763 26.2723278,23.6099254 25.8687675,24.839304 L25.0951712,27.1800949 Z M25.2801892,19.0968407 L28.2568767,19.0968407 L32.7806662,31.6259254 L29.7536016,31.6259254 L28.963062,29.2346034 L24.4225103,29.2346034 L23.6489141,31.6259254 L20.7731619,31.6259254 L25.2801892,19.0968407 Z" id="Fill-26"></path>
                <path d="M36.245042,24.0309514 L36.2955097,24.0309514 C36.850473,22.9531661 37.8090873,22.4143186 39.0534737,22.4143186 C41.0211699,22.4143186 42.1647115,23.7278554 42.1647115,25.7318328 L42.1647115,31.6258893 L39.5412072,31.6258893 L39.5412072,26.2370531 C39.5412072,25.2603299 39.0198588,24.6035164 38.0443917,24.6035164 C37.0185476,24.6035164 36.3291246,25.4286463 36.3291246,26.5738667 L36.3291246,31.6258893 L33.6887675,31.6258893 L33.6887675,22.6668836 L36.245042,22.6668836 L36.245042,24.0309514 Z" id="Fill-28"></path>
                <path d="M56.6610068,25.4118689 C56.6610068,23.0373605 55.584695,21.2017898 53.4320714,21.2017898 C51.2626857,21.2017898 50.152759,23.0373605 50.152759,25.4118689 C50.152759,27.7694734 51.2626857,29.5714169 53.4320714,29.5714169 C55.584695,29.5714169 56.6610068,27.7694734 56.6610068,25.4118689 M47.2265391,25.4118689 C47.2265391,21.6565695 49.6145578,18.8779028 53.4153093,18.8779028 C57.1991174,18.8779028 59.5872266,21.6565695 59.5872266,25.4118689 C59.5872266,29.1503548 57.1991174,31.9290215 53.4153093,31.9290215 C49.6145578,31.9290215 47.2265391,29.1503548 47.2265391,25.4118689" id="Fill-30"></path>
                <path d="M66.297309,28.4094463 L66.297309,27.2475028 C65.9105109,27.4831638 65.3387853,27.6179435 64.7502071,27.7526328 C63.5897221,28.0052881 63.0347587,28.2915706 63.0347587,29.0661695 C63.0347587,29.8408588 63.623337,30.1271412 64.3466468,30.1271412 C65.5238033,30.1271412 66.297309,29.3861695 66.297309,28.4094463 M66.2636941,30.5312994 L66.2300791,30.5312994 C65.6415009,31.3565198 64.9016101,31.8616497 63.5224922,31.8616497 C61.7567574,31.8616497 60.4618127,30.9186441 60.4618127,29.1504181 C60.4618127,27.1632542 62.0256767,26.6580339 63.9766108,26.4222825 C65.574271,26.2033446 66.2300791,25.9507797 66.2300791,25.2771525 C66.2300791,24.6372429 65.8096661,24.1993672 64.9016101,24.1993672 C63.8925282,24.1993672 63.4047947,24.6709605 63.3375648,25.3782147 L60.8989879,25.3782147 C60.9663083,23.8457401 62.2107853,22.4143277 64.8679046,22.4143277 C66.0115368,22.4143277 66.8186574,22.5827345 67.4409412,22.9531751 C68.36585,23.492113 68.8031158,24.4183051 68.8031158,25.6307797 L68.8031158,30.2282034 C68.8031158,30.9354576 68.9040512,31.3228023 69.1394462,31.4743051 L69.1394462,31.6258983 L66.5665002,31.6258983 C66.4318593,31.4238644 66.3141618,31.0365198 66.2636941,30.5312994" id="Fill-32"></path>
                <path d="M69.8961626,22.6669017 L71.241575,22.6669017 L71.241575,19.8040768 L73.8313738,19.8040768 L73.8313738,22.6669017 L75.5803464,22.6669017 L75.5803464,24.3508791 L73.8313738,24.3508791 L73.8313738,28.7968 C73.8313738,29.4703367 74.2014097,29.6556475 74.8236029,29.6556475 C74.9917682,29.6556475 75.2608688,29.6387435 75.4289434,29.6219299 L75.5635843,29.6219299 L75.5635843,31.5921898 C75.2777215,31.6427209 74.7395203,31.7269695 74.0331539,31.7269695 C72.3682638,31.7269695 71.241575,31.1880316 71.241575,29.369365 L71.241575,24.3508791 L69.8961626,24.3508791 L69.8961626,22.6669017 Z" id="Fill-34"></path>
                <path d="M79.4145951,23.9467842 L79.4650628,23.9467842 C80.0031734,22.9868746 80.9114105,22.4143096 82.1557969,22.4143096 C84.1234025,22.4143096 85.2670348,23.7278463 85.2670348,25.7318237 L85.2670348,31.6258802 L82.6435304,31.6258802 L82.6435304,26.2370441 C82.6435304,25.2603209 82.122182,24.6035073 81.146715,24.6035073 C80.1209615,24.6035073 79.4314478,25.4287277 79.4314478,26.5738576 L79.4314478,31.6258802 L76.7910907,31.6258802 L76.7910907,19.0967955 L79.4314478,19.0967955 L79.4314478,22.5490893 C79.4314478,22.6332475 79.4314478,23.3573153 79.4145951,23.9467842" id="Fill-36"></path>
                <path d="M97.1062652,27.1295638 C97.1062652,25.5297446 96.484072,24.4183322 95.2395043,24.4183322 C93.8605676,24.4183322 93.2215217,25.5970893 93.2215217,27.1464678 C93.2215217,28.7125695 93.9783558,29.7903548 95.2563571,29.7903548 C96.484072,29.7903548 97.1062652,28.7461966 97.1062652,27.1295638 M93.2383744,30.3123887 L93.2046689,30.3123887 L93.2046689,31.6259254 L90.6652472,31.6259254 L90.6652472,19.0968407 L93.3056043,19.0968407 L93.3056043,21.8416994 C93.3056043,22.5995751 93.2551366,23.3742644 93.2215217,23.9131119 L93.2719893,23.9131119 C93.8773298,23.0037333 94.7013937,22.4142644 95.9458708,22.4142644 C98.2666596,22.4142644 99.7969993,24.4014282 99.7969993,27.1464678 C99.7969993,30.1102644 98.2835123,31.9122079 95.9627235,31.9122079 C94.7687142,31.9122079 93.7596322,31.4069876 93.2383744,30.3123887" id="Fill-38"></path>
                <path d="M103.479936,24.266739 L103.530403,24.266739 C104.102129,23.0205469 104.90934,22.5153266 106.019267,22.5153266 C106.271605,22.5153266 106.456623,22.5322305 106.57423,22.5827616 L106.57423,24.889835 L106.507,24.889835 C106.321982,24.8561175 106.137055,24.839304 105.952037,24.839304 C104.522632,24.8224 103.58078,25.714965 103.58078,27.4663774 L103.58078,31.6259254 L100.940514,31.6259254 L100.940514,22.6669198 L103.479936,22.6669198 L103.479936,24.266739 Z" id="Fill-40"></path>
                <path d="M113.132864,28.4094463 L113.132864,27.2475028 C112.745975,27.4831638 112.17425,27.6179435 111.585671,27.7526328 C110.425186,28.0052881 109.870223,28.2915706 109.870223,29.0661695 C109.870223,29.8408588 110.458892,30.1271412 111.182021,30.1271412 C112.359268,30.1271412 113.132864,29.3861695 113.132864,28.4094463 M113.099158,30.5312994 L113.065544,30.5312994 C112.476965,31.3565198 111.736984,31.8616497 110.357957,31.8616497 C108.592222,31.8616497 107.297277,30.9186441 107.297277,29.1504181 C107.297277,27.1632542 108.861232,26.6580339 110.812075,26.4222825 C112.409735,26.2033446 113.065544,25.9507797 113.065544,25.2771525 C113.065544,24.6372429 112.64513,24.1993672 111.736984,24.1993672 C110.727993,24.1993672 110.240259,24.6709605 110.173029,25.3782147 L107.734452,25.3782147 C107.801773,23.8457401 109.046159,22.4143277 111.703369,22.4143277 C112.847001,22.4143277 113.654122,22.5827345 114.276406,22.9531751 C115.201314,23.492113 115.63858,24.4183051 115.63858,25.6307797 L115.63858,30.2282034 C115.63858,30.9354576 115.739516,31.3228023 115.974911,31.4743051 L115.974911,31.6258983 L113.401965,31.6258983 C113.267324,31.4238644 113.149717,31.0365198 113.099158,30.5312994" id="Fill-42"></path>
                <path d="M119.80915,24.0309514 L119.859618,24.0309514 C120.414581,22.9531661 121.373195,22.4143186 122.617582,22.4143186 C124.585278,22.4143186 125.72882,23.7278554 125.72882,25.7318328 L125.72882,31.6258893 L123.105315,31.6258893 L123.105315,26.2370531 C123.105315,25.2603299 122.583967,24.6035164 121.6085,24.6035164 C120.582746,24.6035164 119.893233,25.4286463 119.893233,26.5738667 L119.893233,31.6258893 L117.252876,31.6258893 L117.252876,22.6668836 L119.80915,22.6668836 L119.80915,24.0309514 Z" id="Fill-44"></path>
                <path d="M133.397344,27.1464226 C133.397344,25.5634169 132.741536,24.418287 131.379361,24.418287 C130.134794,24.418287 129.512601,25.5297898 129.512601,27.1295186 C129.512601,28.7462418 130.134794,29.7903096 131.362509,29.7903096 C132.64051,29.7903096 133.397344,28.7125243 133.397344,27.1464226 M126.821866,27.1464226 C126.821866,24.4014734 128.368968,22.4143096 130.689757,22.4143096 C131.917472,22.4143096 132.741536,22.9868746 133.346876,23.9130667 L133.380491,23.9130667 C133.346876,23.3573153 133.313262,22.5995299 133.313262,21.8417446 L133.313262,19.0967955 L135.953619,19.0967955 L135.953619,31.6258802 L133.414197,31.6258802 L133.414197,30.3123435 L133.380491,30.3123435 C132.859234,31.4069424 131.866914,31.9121627 130.656142,31.9121627 C128.335353,31.9121627 126.821866,30.1103096 126.821866,27.1464226" id="Fill-46"></path>
            </g>
        </g>
    </g>
</svg>