<?xml version="1.0" encoding="utf-8"?>
<!DOCTYPE svg PUBLIC "-//W3C//DTD SVG 1.1//EN" "http://www.w3.org/Graphics/SVG/1.1/DTD/svg11.dtd">
<svg version="1.1" id="Calque_1" xmlns="http://www.w3.org/2000/svg" xmlns:xlink="http://www.w3.org/1999/xlink" x="0px" y="0px"
	 width="272px" height="100px" viewBox="0 0 272 100" enable-background="new 0 0 272 100" xml:space="preserve">
<path fill="#E91845" d="M0.5,49.7L136,0.6l135.5,49.1L136,99.4L0.5,49.7"/>
<path fill="none" stroke="#434242" stroke-width="0.11" stroke-miterlimit="3.864" d="M217.1,76.4h8.7V81h-8.7V76.4z"/>
<path fill="#454545" d="M221.4,78.7"/>
<path fill="none" stroke="#434242" stroke-width="0.11" stroke-miterlimit="3.864" d="M221.4,78.7"/>
<path fill="#454545" d="M77.2,77.1"/>
<path fill="none" stroke="#434242" stroke-width="0.11" stroke-miterlimit="3.864" d="M77.2,77.1"/>
<path fill="#454545" d="M175.9,19.6"/>
<path fill="none" stroke="#434242" stroke-width="0.11" stroke-miterlimit="3.864" d="M175.9,19.6"/>
<path fill="#1B1B1F" stroke="#1B1B1F" stroke-width="0.11" stroke-miterlimit="3.864" d="M218.2,26.6l-3.1-2.6l-5.6-1.8v9.3h-3.2
	v-1.6c0-6.4-4.3-8.4-9.6-7.7h-0.4c-4.3,0-9.4,2.2-9.4,8.5v0.8h-3.8v-19h-8.5v3.4h-3.7v-2.3l-8,3v5.7h-2.2v3.8h-3.9
	c-1.7-3.2-5.3-4.1-8.5-4.1H148c-1.6,0-3.4,0.3-4.9,1.1c-4.6-2.9-7.4-0.1-8.8,2.8l-0.1-0.1v-3.2H123v35.1h-9v15c0,2.6-3.7,2.7-3.7,0
	V51.5h11.4V30.9c0-6.4-5.1-8.5-9.5-8.5h-1.1v-2.1H111l6.5-8.5h-7l-4.1,8.5v3.4c-2.2,1.3-3.9,3.5-3.9,7.2v2.5h-4.1v-1.9
	c0.6-10.9-8.8-11.1-11.8-4.8V11.8H65.1v61.6h-8.8V11.9h-9.9V81h40.2v-2.8c1.9,5.1,11.8,4.6,11.8-6V72h4.1v0.6
	c-1.8,6.7,4.9,8.8,9.2,8.8c0,0,10.5,0.8,10-7.6v-6.6h1.3v13.9h11.3V29.8h0.1c0.8-1.1,2.5-1.1,4.4,0.3v9.8h7.7v-8.4
	c0-2.6,3.7-2.7,3.7,0v10.4c-7.7,4.8-11.5,6.3-11.4,12.2v21.7c0,5.6,6.9,8.1,11.4,2.5v2.8h7.8V68.7h5.2v7.4c0,6.7,6.3,6,11.8,3.6v1.4
	h8.5V70.2h3.8v2.3c0,6.4,5.2,8.9,10.6,9.1c1.9,0.1,6.9,0.1,8.7-3.5v-7.9h3.2V81h20.9V31.4C230.4,20.7,220.5,20.5,218.2,26.6z"/>
<path fill="#FFFFFF" stroke="#1B1B1F" stroke-width="1.093" stroke-miterlimit="3.864" d="M42.9,10.1h8.8v60.6h10v7.6H42.9V10.1z"/>
<g>
	
		<path fill="#FFFFFF" stroke="#1B1B1F" stroke-width="1.093" stroke-linecap="round" stroke-linejoin="round" stroke-miterlimit="3.864" d="
		M82.9,23.7c2.3-6.2,11.4-5.9,11.4,4.8v40.6C94,80.4,84.3,81,82.9,74.7v3.4h-8.7v-68h8.7V23.7"/>
	<path fill="#1B1B1F" stroke="#1B1B1F" stroke-width="0.11" stroke-miterlimit="3.864" d="M86.2,70.2c0,2.6-3.4,2.7-3.4,0v-42
		c0-2.7,3.4-2.6,3.4,0V70.2z"/>
</g>
<g>
	<path fill="#FFFFFF" stroke="#1B1B1F" stroke-width="1.093" stroke-miterlimit="3.864" d="M109.7,55.1h7.7v14.7
		c0,6.4-5.1,8.8-9.5,8.8h-0.3c-4.3,0-9.4-2.5-9.4-8.8V28.1c0-6.4,5.1-8.6,9.4-8.6h0.3c4.4,0,9.5,2.2,9.5,8.6v20.7H106v21.4
		c0,2.7,3.7,2.6,3.7,0V55.1L109.7,55.1z"/>
	<path fill="#1B1B1F" stroke="#1B1B1F" stroke-width="0.11" stroke-miterlimit="3.864" d="M106.1,43.5V28.2c0-2.7,3.7-2.6,3.7,0
		v15.3H106.1"/>
	<path fill="#FFFFFF" stroke="#1B1B1F" stroke-width="1.093" stroke-miterlimit="3.864" d="M105.4,16.7h4.5l5.1-6h-6.7L105.4,16.7z"
		/>
</g>
<path fill="#FFFFFF" stroke="#1B1B1F" stroke-width="1.093" stroke-miterlimit="3.864" d="M129.7,27c1.6-2.8,3.4-1.2,6,1.4
	c2.5,2.6,8.1-4.3,3.3-7.8c-4.8-3.4-7.8-0.4-9.3,2.6l-0.1-0.2v-3H121v58.1h8.7V27z"/>
<g>
	<path fill="#FFFFFF" stroke="#1B1B1F" stroke-width="1.093" stroke-miterlimit="3.864" d="M134.1,69.4V51.1
		c-0.1-6,3.7-7.5,11.4-12.3V27.9c0.1-2.9-3.7-2.6-3.7,0v9h-7.7v-9.2c0-6.4,5.1-8.5,9.4-8.5h0.3c4.4,0,9.5,2.2,9.5,8.5v50.4h-7.8
		v-2.8c-4.5,5.6-11.3,3.8-11.4-2.5V69.4z"/>
	<path fill="#1B1B1F" stroke="#1B1B1F" stroke-width="0.11" stroke-miterlimit="3.864" d="M142.2,51.3c0-2.6,2.5-4,3.3-4.5v23.3
		c0,2.6-3.3,2.7-3.3,0V51.3"/>
</g>
<path fill="#FFFFFF" stroke="#1B1B1F" stroke-width="1.093" stroke-miterlimit="3.864" d="M165.9,26.5h2.2V20h-2.2l0.1-8.9l-8,2.7
	V20h-2.2v6.5h2.2v47.2c0,6.2,6.8,5.2,10.4,3.5v-5.3c-1.5,0-2.3-1.5-2.3-3.8C165.9,66.6,165.9,43.2,165.9,26.5z"/>
<g>
	<path fill="#FFFFFF" stroke="#1B1B1F" stroke-width="1.093" stroke-miterlimit="3.864" d="M171.1,20h7.9v58.1h-7.9V20z M171.1,10.2
		h8.4v7.2h-8.4V10.2z"/>
</g>
<g>
	<path fill="#FFFFFF" stroke="#1B1B1F" stroke-width="1.093" stroke-miterlimit="3.864" d="M202.3,55.1v14.7c0,6.4-5,8.7-9.3,8.7
		h-0.3c-4.4,0-9.6-2.4-9.6-8.7V28.1c0-6.4,5.1-8.6,9.5-8.6h0.3c4.3,0,9.4,2.2,9.4,8.6V55.1L202.3,55.1z"/>
	<path fill="#1B1B1F" stroke="#1B1B1F" stroke-width="0.11" stroke-miterlimit="3.864" d="M194.5,70c0,2.6-3.7,2.7-3.7,0V28
		c0-2.7,3.7-2.6,3.7,0V70"/>
</g>
<path fill="#FFFFFF" stroke="#1B1B1F" stroke-width="1.093" stroke-miterlimit="3.864" d="M218.4,78.3V28.2c0-2.6-3.5-2.7-3.5,0
	v50.1h-8.7V20h8.7v3.8c2.3-6.1,11.4-5.9,11.4,4.8v49.6L218.4,78.3L218.4,78.3z"/>
<g>
	<path fill="#FFFFFF" stroke="#1B1B1F" stroke-width="1.093" stroke-miterlimit="3.864" d="M61.7,10.1h8.2v7.3h-8.2V10.1z M61.7,20
		h8v58.3h-8V20z"/>
</g>
</svg>
